<svg xmlns="http://www.w3.org/2000/svg" viewBox="0 0 148.88 158.73"><defs><style>.cls-1{fill:#3484DA ;}</style></defs><g id="Calque_2" data-name="Calque 2"><g id="_15" data-name="15"><path class="cls-1" d="M129.86,120.69a18.93,18.93,0,0,0-11.81,4.13L92.12,97.58a41.34,41.34,0,0,0,11.31-27.17h8.31a6.72,6.72,0,1,0,0-3.41h-8.33A41.44,41.44,0,0,0,88.8,37.5L102.49,20a10.71,10.71,0,1,0-2.69-2.11L86.11,35.39a41.43,41.43,0,0,0-50.58,1.75l-8.28-9a6.71,6.71,0,1,0-5.74,3.24,6.64,6.64,0,0,0,3.28-.87L33,39.43a41.37,41.37,0,0,0-8.85,46.75l-4.92,2.51a10.61,10.61,0,1,0,2,6.22,10.47,10.47,0,0,0-.49-3.18l4.91-2.49a41.44,41.44,0,0,0,64,10.73l25.9,27.21a19,19,0,1,0,14.28-6.49ZM116.54,65.26a1.68,1.68,0,1,1-1.67,1.68A1.68,1.68,0,0,1,116.54,65.26ZM105.46,3.83a2.8,2.8,0,1,1-2.8,2.79A2.79,2.79,0,0,1,105.46,3.83ZM19.83,24.29a1.68,1.68,0,1,1,1.68-1.68A1.68,1.68,0,0,1,19.83,24.29Zm-12,70.62a2.8,2.8,0,1,1,2.8-2.8A2.8,2.8,0,0,1,7.83,94.91ZM87.57,39.07A39.45,39.45,0,0,1,101.4,67H87.22A25,25,0,0,0,79,50.09ZM62,29.62A39.31,39.31,0,0,1,84.88,37l-8.6,11a25,25,0,0,0-29.64,1.22L36.89,38.62A39.31,39.31,0,0,1,62,29.62Zm-2.57,29a6.71,6.71,0,1,1-6.71-6.71A6.7,6.7,0,0,1,59.39,58.62ZM22.46,69.12A39.39,39.39,0,0,1,34.35,40.9l9.78,10.62a25,25,0,0,0-4.86,27L25.93,85.28A39.34,39.34,0,0,1,22.46,69.12ZM62,108.62A39.52,39.52,0,0,1,27.47,88.33l13.35-6.79A25,25,0,0,0,78.24,88L88.3,98.52A39.35,39.35,0,0,1,62,108.62Zm18.75-23a24.91,24.91,0,0,0,6.51-15.18h14.21A39.32,39.32,0,0,1,90.74,96.13Zm42.85,52a4.48,4.48,0,1,1,4.47-4.47A4.47,4.47,0,0,1,123.56,137.55Z"/></g></g></svg>